<svg xmlns="http://www.w3.org/2000/svg" width="31" height="31" viewBox="0 0 31 31"><rect width="31" height="31" fill="none"/><path d="M22.039,7.154H19.462a5.154,5.154,0,0,0-10.308,0H6.577A2.585,2.585,0,0,0,4,9.731V25.193A2.585,2.585,0,0,0,6.577,27.77H22.039a2.585,2.585,0,0,0,2.577-2.577V9.731A2.585,2.585,0,0,0,22.039,7.154ZM14.308,4.577a2.585,2.585,0,0,1,2.577,2.577H11.731A2.585,2.585,0,0,1,14.308,4.577Zm7.731,20.616H6.577V9.731H9.154v2.577a1.289,1.289,0,0,0,2.577,0V9.731h5.154v2.577a1.289,1.289,0,0,0,2.577,0V9.731h2.577Z" transform="translate(1.154 0.577)" fill="#d1d1d1"/></svg>