<svg xmlns="http://www.w3.org/2000/svg" viewBox="0 0 143.79 143.79"><defs><style>.cls-1{fill-rule:evenodd;}</style></defs><g id="Warstwa_2" data-name="Warstwa 2"><g id="Layer_1" data-name="Layer 1"><path d="M124.45,143.79H19.34A19.36,19.36,0,0,1,0,124.45V19.34A19.37,19.37,0,0,1,19.34,0H124.45a19.37,19.37,0,0,1,19.34,19.34V124.45A19.36,19.36,0,0,1,124.45,143.79ZM19.34,11.19a8.16,8.16,0,0,0-8.15,8.15V124.45a8.16,8.16,0,0,0,8.15,8.15H124.45a8.16,8.16,0,0,0,8.15-8.15V19.34a8.16,8.16,0,0,0-8.15-8.15Z"/><path d="M72.49,121.72a48,48,0,1,1,48-48A48,48,0,0,1,72.49,121.72Zm0-82.71a34.75,34.75,0,1,0,34.75,34.75A34.8,34.8,0,0,0,72.49,39Z"/><path class="cls-1" d="M123.13,28.36a8.1,8.1,0,1,1-8.1-8.11A8.1,8.1,0,0,1,123.13,28.36Z"/></g></g></svg>