<svg xmlns="http://www.w3.org/2000/svg" width="14.845" height="14.845" viewBox="0 0 14.845 14.845"><g transform="translate(0.5 0.5)"><path d="M6.461,3h6.923a3.461,3.461,0,0,1,3.461,3.461v6.923a3.461,3.461,0,0,1-3.461,3.461H6.461A3.461,3.461,0,0,1,3,13.384V6.461A3.461,3.461,0,0,1,6.461,3Z" transform="translate(-3 -3)" fill="none" stroke="#d1d1d1" stroke-linecap="round" stroke-linejoin="round" stroke-width="1"/><path d="M17.573,14.3a2.769,2.769,0,1,1-2.333-2.333A2.769,2.769,0,0,1,17.573,14.3Z" transform="translate(-7.881 -7.811)" fill="none" stroke="#d1d1d1" stroke-linecap="round" stroke-linejoin="round" stroke-width="1"/><path d="M26.25,9.75h0" transform="translate(-15.52 -6.635)" fill="none" stroke="#d1d1d1" stroke-linecap="round" stroke-linejoin="round" stroke-width="1"/></g></svg>