<svg id="Component_9_1" data-name="Component 9 – 1" xmlns="http://www.w3.org/2000/svg" width="115.792" height="34.967" viewBox="0 0 115.792 34.967">
  <circle id="Ellipse_3" data-name="Ellipse 3" cx="16.5" cy="16.5" r="16.5" transform="translate(1 0.832)" fill="#fff"/>
  <g id="LogoAndTextWektor" transform="translate(-48 -28.5)">
    <path id="Path_21" data-name="Path 21" d="M65.483,28.5A17.483,17.483,0,1,1,48,45.968,17.483,17.483,0,0,1,65.483,28.5ZM80.939,40.406h-12.8l-2.7,5.039-2.7-5.039H49.905v3.441h10.57l3.119,5.577V59.979h3.795V49.425L70.4,43.848c3.841,0,6.683-.015,10.539-.015Zm-6.944,4.225v8.48h3.795v-8.48Zm-20.817,0v8.48h3.841v-8.48ZM65.453,35.49a2.458,2.458,0,1,1-2.458,2.458A2.455,2.455,0,0,1,65.453,35.49Z" fill="#eb2f37" fill-rule="evenodd"/>
    <path id="Path_22" data-name="Path 22" d="M316.1,106.531h12.721v3.349H324.55v10.2h-4.179v-10.2H316.1Zm13.12,0h4.655l2.735,4.563,2.735-4.563h4.624l-5.27,7.881v5.669h-4.194v-5.669Zm15.133,0h12.721v3.349H352.8v10.2h-4.179v-10.2h-4.271Zm22.384,8.388-1.49-4.87-1.475,4.87Zm.86,2.919H362.85l-.661,2.228h-4.271L363,106.531h4.563l5.085,13.535h-4.379Zm6.545-11.338h4.609l2.4,4.163,2.32-4.163h4.563l-4.194,6.56,6.284,9.464h-4.7l-4.348-6.837-6.729,10.6h-4.67l8.711-13.32Z" transform="translate(-226.911 -66.017)" fill="#fff" fill-rule="evenodd"/>
    <path id="Path_23" data-name="Path 23" d="M436.637,153.048H435.7v-3.795h.937Zm3.549-3.795a.357.357,0,0,1,.4.4v3.4h-.937v-2.858a.122.122,0,0,0-.138-.138h-.937v3h-.937v-3.795Zm4.809,0-1.459,3.795H442.4l-1.4-3.795h1.06l.937,3,.86-3Zm1.429,3.795h-.937v-3.795h.937Zm3.549-3.795a.357.357,0,0,1,.4.4v3.4h-.937v-2.858a.122.122,0,0,0-.138-.138h-.937v3h-.937v-3.795Zm1.8,0H454.3l-.4.8h-1.46a.122.122,0,0,0-.138.138v1.936a.122.122,0,0,0,.138.138H454.3l-.4.8H451.77a.357.357,0,0,1-.4-.4v-3A.362.362,0,0,1,451.77,149.254Zm4.01,3.795h-.937v-3.795h.937Zm1.936-1.613v.814h.937a.122.122,0,0,0,.138-.138v-.538a.122.122,0,0,0-.138-.138Zm0-.584h.937a.122.122,0,0,0,.138-.138v-.538a.122.122,0,0,0-.138-.138h-.937Zm2,1.8a.357.357,0,0,1-.4.4h-2.52v-3.795h2.535a.357.357,0,0,1,.4.4v1.2a.248.248,0,0,1-.2.261.259.259,0,0,1,.2.261v1.275Zm1.014-3.4h.937v3h2l-.4.8h-2.535Zm3.318,0h2.934l-.4.8h-1.6v.8h1.46v.6h-1.46v.8h2l-.4.8h-2.535Zm26.363-9.279v-.661a.081.081,0,0,0-.092-.092H489.7v.737h.707Zm-.691.077v1.137H489.1V138.7h1.659a.235.235,0,0,1,.261.261v.922c0,.169-.077.261-.215.261h-.246l.6,1.045h-.784Zm2.212-.108a1.872,1.872,0,0,1-.538,1.306,1.834,1.834,0,0,1-1.306.538,1.872,1.872,0,0,1-1.306-.538,1.834,1.834,0,0,1-.538-1.306,1.872,1.872,0,0,1,.538-1.306,1.834,1.834,0,0,1,1.306-.538,1.872,1.872,0,0,1,1.306.538A1.844,1.844,0,0,1,491.929,139.944Zm-.661,1.2a1.706,1.706,0,1,0-1.2.492A1.7,1.7,0,0,0,491.269,141.142Z" transform="translate(-328.137 -92.762)" fill="#eb2f37" fill-rule="evenodd"/>
  </g>
</svg>
