<?xml version="1.0" encoding="utf-8"?>
<!-- Generator: Adobe Illustrator 16.0.0, SVG Export Plug-In . SVG Version: 6.00 Build 0)  -->
<!DOCTYPE svg PUBLIC "-//W3C//DTD SVG 1.0//EN" "http://www.w3.org/TR/2001/REC-SVG-20010904/DTD/svg10.dtd">
<svg version="1.0" id="Layer_1" xmlns="http://www.w3.org/2000/svg" xmlns:xlink="http://www.w3.org/1999/xlink" x="0px" y="0px"
	 width="100px" height="100px" viewBox="0 0 100 100" enable-background="new 0 0 100 100" xml:space="preserve">
<path d="M15.384,69.983l5.768-3.33C18.317,61.748,16.667,56.074,16.667,50c0-18.412,14.922-33.333,33.336-33.333
	c6.074,0,11.752,1.647,16.65,4.492l-2.483,4.304l15.71-0.55L72.5,11.029l-2.517,4.358C64.102,11.979,57.292,10,50.003,10
	C27.907,10,10,27.907,10,50C10,57.288,11.979,64.099,15.384,69.983z"/>
<path d="M20.121,75.088L27.5,88.972l2.516-4.362C35.898,88.021,42.715,90,50.003,90C72.087,90,90,72.09,90,50
	c0-7.289-1.979-14.098-5.388-19.984l-5.768,3.33c2.838,4.902,4.488,10.58,4.488,16.654c0,18.411-14.928,33.333-33.33,33.333
	c-6.077,0-11.754-1.65-16.657-4.492l2.487-4.307L20.121,75.088z"/>
<path d="M39.486,41.667l-0.658-2.305c-1-3.493-4.36-6.028-7.995-6.028h-4.167v5h4.167c1.375,0,2.809,1.081,3.187,2.402l5.063,17.724
	c0.505,1.765,2.417,3.207,4.25,3.207h20c1.833,0,3.581-1.481,3.881-3.288L70,41.667H39.486z"/>
<circle cx="60" cy="68.333" r="3.333"/>
<circle cx="46.667" cy="68.333" r="3.333"/>
</svg>
