<svg xmlns="http://www.w3.org/2000/svg" viewBox="0 0 119.73 119.45"><defs><style>.cls-1{stroke:#000;stroke-miterlimit:10;stroke-width:2.83px;}</style></defs><g id="Warstwa_2" data-name="Warstwa 2"><g id="OUTLINE"><path class="cls-1" d="M95.69,33.54H88.62V24A22.63,22.63,0,0,0,66,1.42H24A22.63,22.63,0,0,0,1.42,24v25.9A22.63,22.63,0,0,0,24,72.54h1.84a19.84,19.84,0,0,1-4.05,7.61,3.47,3.47,0,0,0-.38,4A3.42,3.42,0,0,0,25,85.87,25.94,25.94,0,0,0,31.2,84.1a22.64,22.64,0,0,0,22.52,20.56H76.87c2.07,4.67,6.94,11.6,17.87,13.33a3.42,3.42,0,0,0,3.55-1.72,3.47,3.47,0,0,0-.39-4,19.77,19.77,0,0,1-4-7.61h1.83a22.63,22.63,0,0,0,22.62-22.61V56.15A22.64,22.64,0,0,0,95.69,33.54ZM24.49,82.42a23.11,23.11,0,0,0,5.27-11.35A1.75,1.75,0,0,0,28,69H24A19.13,19.13,0,0,1,4.92,49.93V24A19.13,19.13,0,0,1,24,4.92H66A19.13,19.13,0,0,1,85.12,24v25.9A19.13,19.13,0,0,1,66,69H41.7a1.75,1.75,0,0,0-1.64,1.13C38.57,74.05,34.55,80.81,24.49,82.42Zm90.32-.37a19.13,19.13,0,0,1-19.12,19.11h-4a1.75,1.75,0,0,0-1.72,2,22.6,22.6,0,0,0,5.32,11.35c-10.11-1.61-14.13-8.37-15.62-12.25A1.75,1.75,0,0,0,78,101.16H53.72A19.12,19.12,0,0,1,34.62,82.3a22.43,22.43,0,0,0,8.25-9.76H66A22.63,22.63,0,0,0,88.62,49.93V37h7.07a19.14,19.14,0,0,1,19.12,19.11Z"/><path class="cls-1" d="M93.86,80.24H55.56a1.75,1.75,0,0,0,0,3.5h38.3a1.75,1.75,0,0,0,0-3.5Z"/><path class="cls-1" d="M45,26H64.17a1.75,1.75,0,0,0,0-3.5H45A1.75,1.75,0,0,0,45,26Z"/><path class="cls-1" d="M25.86,26h9.58a1.75,1.75,0,0,0,0-3.5H25.86a1.75,1.75,0,0,0,0,3.5Z"/><path class="cls-1" d="M64.17,35.23H25.87a1.75,1.75,0,1,0,0,3.5h38.3a1.75,1.75,0,0,0,0-3.5Z"/><path class="cls-1" d="M65.92,49.66a1.75,1.75,0,0,0-1.75-1.75H25.87a1.75,1.75,0,0,0,0,3.5h38.3A1.75,1.75,0,0,0,65.92,49.66Z"/></g></g></svg>