<svg xmlns="http://www.w3.org/2000/svg" viewBox="0 0 116.9 116.62"><g id="Warstwa_2" data-name="Warstwa 2"><g id="OUTLINE"><path d="M94.28,32.13H87.21V22.61A22.65,22.65,0,0,0,64.59,0h-42A22.65,22.65,0,0,0,0,22.61v25.9A22.65,22.65,0,0,0,22.62,71.13h1.83a19.85,19.85,0,0,1-4,7.6,3.46,3.46,0,0,0-.39,4,3.42,3.42,0,0,0,3.55,1.73,26.14,26.14,0,0,0,6.21-1.76,22.65,22.65,0,0,0,22.53,20.56H75.45c2.07,4.66,7,11.59,17.87,13.33a3.44,3.44,0,0,0,3.55-1.73,3.49,3.49,0,0,0-.38-4,19.72,19.72,0,0,1-4-7.6h1.84A22.65,22.65,0,0,0,116.9,80.64V54.74A22.64,22.64,0,0,0,94.28,32.13ZM23.07,81a23.2,23.2,0,0,0,5.28-11.35,1.77,1.77,0,0,0-.4-1.41,1.74,1.74,0,0,0-1.33-.61h-4A19.15,19.15,0,0,1,3.5,48.51V22.61A19.14,19.14,0,0,1,22.62,3.5h42A19.14,19.14,0,0,1,83.71,22.61v25.9A19.15,19.15,0,0,1,64.59,67.63H40.28a1.74,1.74,0,0,0-1.63,1.12C37.15,72.64,33.13,79.4,23.07,81Zm90.33-.36A19.14,19.14,0,0,1,94.28,99.75h-4a1.74,1.74,0,0,0-1.33.61,1.72,1.72,0,0,0-.4,1.41,22.55,22.55,0,0,0,5.32,11.35c-10.11-1.6-14.12-8.36-15.62-12.25a1.74,1.74,0,0,0-1.63-1.12H52.31A19.13,19.13,0,0,1,33.2,80.88a22.41,22.41,0,0,0,8.25-9.75H64.59A22.65,22.65,0,0,0,87.21,48.51V35.63h7.07A19.14,19.14,0,0,1,113.4,54.74Z"/><path d="M92.44,78.82H54.14a1.75,1.75,0,1,0,0,3.5h38.3a1.75,1.75,0,0,0,0-3.5Z"/><path d="M43.6,24.63H62.76a1.75,1.75,0,1,0,0-3.5H43.6a1.75,1.75,0,0,0,0,3.5Z"/><path d="M24.45,24.63H34a1.75,1.75,0,0,0,0-3.5H24.45a1.75,1.75,0,0,0,0,3.5Z"/><path d="M62.76,33.81H24.45a1.75,1.75,0,0,0,0,3.5H62.76a1.75,1.75,0,1,0,0-3.5Z"/><path d="M64.51,48.25a1.75,1.75,0,0,0-1.75-1.75H24.45a1.75,1.75,0,0,0,0,3.5H62.76A1.76,1.76,0,0,0,64.51,48.25Z"/></g></g></svg>