<svg xmlns="http://www.w3.org/2000/svg" width="19.854" height="14.845" viewBox="0 0 19.854 14.845"><g transform="translate(0.5 0.5)"><path d="M19.958,8.167A2.443,2.443,0,0,0,18.3,6.376,59.07,59.07,0,0,0,10.926,6s-5.9,0-7.37.412A2.443,2.443,0,0,0,1.894,8.2,27.112,27.112,0,0,0,1.5,12.941a27.112,27.112,0,0,0,.394,4.773,2.437,2.437,0,0,0,1.662,1.719c1.474.412,7.37.412,7.37.412s5.9,0,7.37-.412a2.443,2.443,0,0,0,1.662-1.791,27.111,27.111,0,0,0,.394-4.7,27.111,27.111,0,0,0-.394-4.773Z" transform="translate(-1.499 -6)" fill="none" stroke="#d1d1d1" stroke-linecap="round" stroke-linejoin="round" stroke-width="1"/><path d="M14.625,18.2l4.927-2.739L14.625,12.72Z" transform="translate(-7.126 -8.518)" fill="none" stroke="#d1d1d1" stroke-linecap="round" stroke-linejoin="round" stroke-width="1"/></g></svg>